HIERARCHY
ROOT Hips
{
	OFFSET 0.000000 0.000000 0.000000
	CHANNELS 6 Xposition Yposition Zposition Zrotation Yrotation Xrotation 
	JOINT LHipJoint
	{
		OFFSET 0.000000 0.000000 0.000000
		CHANNELS 3 Zrotation Yrotation Xrotation
		JOINT LeftUpLeg
		{
			OFFSET 1.363060 -1.794630 0.839290
			CHANNELS 3 Zrotation Yrotation Xrotation
			JOINT LeftLeg
			{
				OFFSET 2.448110 -6.726130 0.000000
				CHANNELS 3 Zrotation Yrotation Xrotation
				JOINT LeftFoot
				{
					OFFSET 2.562200 -7.039590 0.000000
					CHANNELS 3 Zrotation Yrotation Xrotation
					JOINT LeftToeBase
					{
						OFFSET 0.157640 -0.433110 2.322550
						CHANNELS 3 Zrotation Yrotation Xrotation
						End Site
						{
							OFFSET 0.000000 0.000000 0.000000
						}
					}
				}
			}
		}
	}
	JOINT RHipJoint
	{
		OFFSET 0.000000 0.000000 0.000000
		CHANNELS 3 Zrotation Yrotation Xrotation
		JOINT RightUpLeg
		{
			OFFSET -1.305520 -1.794630 0.839290
			CHANNELS 3 Zrotation Yrotation Xrotation
			JOINT RightLeg
			{
				OFFSET -2.542530 -6.985550 0.000000
				CHANNELS 3 Zrotation Yrotation Xrotation
				JOINT RightFoot
				{
					OFFSET -2.568260 -7.056230 0.000000
					CHANNELS 3 Zrotation Yrotation Xrotation
					JOINT RightToeBase
					{
						OFFSET -0.164730 -0.452590 2.363150
						CHANNELS 3 Zrotation Yrotation Xrotation
						End Site
						{
							OFFSET 0.000000 0.000000 0.000000
						}
					}
				}
			}
		}
	}
	JOINT LowerBack
	{
		OFFSET 0.000000 0.000000 0.000000
		CHANNELS 3 Zrotation Yrotation Xrotation
		JOINT Spine
		{
			OFFSET 0.028270 2.035590 -0.193380
			CHANNELS 3 Zrotation Yrotation Xrotation
			JOINT Spine1
			{
				OFFSET 0.056720 2.048850 -0.042750
				CHANNELS 3 Zrotation Yrotation Xrotation
				JOINT Neck
				{
					OFFSET 0.000000 0.000000 0.000000
					CHANNELS 3 Zrotation Yrotation Xrotation
					JOINT Neck1
					{
						OFFSET -0.054170 1.746240 0.172020
						CHANNELS 3 Zrotation Yrotation Xrotation
						JOINT Head
						{
							OFFSET 0.104070 1.761360 -0.123970
							CHANNELS 3 Zrotation Yrotation Xrotation
							End Site
							{
								OFFSET 0.000000 0.000000 0.000000
							}
						}
					}
				}
				JOINT LeftShoulder
				{
					OFFSET 0.000000 0.000000 0.000000
					CHANNELS 3 Zrotation Yrotation Xrotation
					JOINT LeftArm
					{
						OFFSET 3.362410 1.200890 -0.311210
						CHANNELS 3 Zrotation Yrotation Xrotation
						JOINT LeftForeArm
						{
							OFFSET 4.983000 -0.000000 -0.000000
							CHANNELS 3 Zrotation Yrotation Xrotation
							JOINT LeftHand
							{
								OFFSET 3.483560 -0.000000 -0.000000
								CHANNELS 3 Zrotation Yrotation Xrotation
								JOINT LeftFingerBase
								{
									OFFSET 0.000000 0.000000 0.000000
									CHANNELS 3 Zrotation Yrotation Xrotation
									JOINT LeftHandIndex1
									{
										OFFSET 0.715260 -0.000000 -0.000000
										CHANNELS 3 Zrotation Yrotation Xrotation
										End Site
										{
											OFFSET 0.000000 0.000000 0.000000
										}
									}
								}
								JOINT LThumb
								{
									OFFSET 0.000000 0.000000 0.000000
									CHANNELS 3 Zrotation Yrotation Xrotation
									End Site
									{
										OFFSET 0.000000 0.000000 0.000000
									}
								}
							}
						}
					}
				}
				JOINT RightShoulder
				{
					OFFSET 0.000000 0.000000 0.000000
					CHANNELS 3 Zrotation Yrotation Xrotation
					JOINT RightArm
					{
						OFFSET -3.136600 1.374050 -0.404650
						CHANNELS 3 Zrotation Yrotation Xrotation
						JOINT RightForeArm
						{
							OFFSET -5.241900 -0.000000 -0.000000
							CHANNELS 3 Zrotation Yrotation Xrotation
							JOINT RightHand
							{
								OFFSET -3.444170 -0.000000 -0.000000
								CHANNELS 3 Zrotation Yrotation Xrotation
								JOINT RightFingerBase
								{
									OFFSET 0.000000 0.000000 0.000000
									CHANNELS 3 Zrotation Yrotation Xrotation
									JOINT RightHandIndex1
									{
										OFFSET -0.622530 -0.000000 -0.000000
										CHANNELS 3 Zrotation Yrotation Xrotation
										End Site
										{
											OFFSET 0.000000 0.000000 0.000000
										}
									}
								}
								JOINT RThumb
								{
									OFFSET 0.000000 0.000000 0.000000
									CHANNELS 3 Zrotation Yrotation Xrotation
									End Site
									{
										OFFSET 0.000000 0.000000 0.000000
									}
								}
							}
						}
					}
				}
			}
		}
	}
}
MOTION
Frames: 11
Frame Time: 0.008333
1.018564 17.345271 0.741448 -169.967274 -21.031427 -174.840095 -11.037235 3.736217 -3.090658 5.604654 39.577636 -2.884850 -1.688699 0.136010 7.722289 3.480719 28.344380 8.534158 8.167200 0.000000 -52.107500 9.709181 -0.293599 8.250038 10.065336 20.022065 -21.607163 4.551495 0.560220 2.705472 2.712403 32.445431 17.523978 12.684100 0.000001 -83.428400 -3.521738 -6.853714 -8.764936 -1.086829 -6.934867 -4.528479 -7.532036 -6.986127 -2.410570 21.770907 -11.317035 -0.988755 -1.028684 -0.195360 1.917331 0.000000 0.000000 0.000000 28.316270 -10.679169 3.790976 3.563093 -0.950072 -58.114111 -0.538374 2.242562 -0.054571 8.905569 -2.733458 -0.261542 -0.406004 0.471591 -0.000000 0.000000 0.000000 0.000000 0.000000 0.000000 0.000000 14.425885 -10.738075 -8.947756 95.425251 56.697852 34.402269 -175.877759 63.590360 179.691152 -25.073359 10.797519 -2.650390 0.363971 -0.915792 -0.000000 0.000000 0.000000 0.000000 0.000000 0.000000 0.000000 
1.003584 17.348524 0.742660 -169.970710 -20.496436 -174.681871 -11.047783 3.778641 -3.205898 5.435897 40.216359 -2.886918 -1.760644 0.120781 7.371719 3.495673 28.552451 8.535038 8.236800 0.000000 -51.512700 9.707324 -0.242790 8.314972 9.930727 20.280480 -21.800356 4.553556 0.565289 2.755630 2.717654 32.612245 17.553693 12.770200 0.000000 -83.755300 -3.451037 -7.036520 -8.680688 -1.037145 -7.123325 -4.521223 -7.480279 -7.186106 -2.446792 21.727794 -11.385058 -1.242584 -0.983497 -0.188732 1.852795 0.000000 0.000000 0.000000 29.292630 -11.123612 3.740980 3.071612 0.597418 -60.890116 -0.291590 0.793131 -0.069248 9.987762 0.242798 -0.013287 -0.440857 0.382091 -0.000000 0.000000 0.000000 0.000000 0.000000 0.000000 0.000000 14.261245 -10.965130 -8.791980 94.816770 56.523256 33.623040 -175.746705 63.268661 179.688195 -25.020790 10.993142 -2.690252 0.354629 -0.923721 -0.000000 0.000000 0.000000 0.000000 0.000000 0.000000 0.000000 
0.988807 17.350634 0.742258 -170.023135 -19.946148 -174.515882 -11.080577 3.824051 -3.324729 5.308986 40.904407 -2.872592 -1.840300 0.108772 7.087372 3.485469 28.600468 8.579253 8.265500 0.000000 -51.144200 9.680087 -0.207349 8.400753 9.765450 20.591357 -21.967024 4.556444 0.573277 2.764211 2.724029 32.779706 17.579947 12.857100 -0.000000 -83.991300 -3.294606 -7.175126 -8.617474 -0.963664 -7.276749 -4.509356 -7.408984 -7.346282 -2.448483 21.537282 -11.379951 -1.512294 -0.921917 -0.180654 1.784019 0.000000 0.000000 0.000000 30.158661 -11.053437 3.694562 3.026464 1.041881 -65.043840 0.087523 0.364415 -0.080344 11.277475 1.103757 0.076071 -0.478883 0.357711 -0.000000 0.000000 0.000000 0.000000 0.000000 0.000000 0.000000 13.892980 -11.090342 -8.696005 94.509199 56.250829 33.056851 -175.590535 62.976635 179.684610 -24.952262 11.272924 -2.747455 0.342614 -0.933672 -0.000000 0.000000 0.000000 0.000000 0.000000 0.000000 0.000000 
0.975099 17.351878 0.740140 -170.115575 -19.412154 -174.342802 -11.124938 3.871496 -3.439333 5.211599 41.575884 -2.848477 -1.921251 0.101494 6.880595 3.454434 28.507702 8.672595 8.264000 0.000001 -51.005000 9.637870 -0.185297 8.498998 9.570476 20.933275 -22.101102 4.558174 0.584411 2.720207 2.730402 32.918805 17.604439 12.932300 0.000000 -84.116699 -3.091714 -7.272107 -8.574394 -0.872177 -7.393160 -4.485300 -7.310041 -7.463708 -2.385126 21.238584 -11.336715 -1.810242 -0.845497 -0.170937 1.706974 0.000000 0.000000 0.000000 30.939579 -10.442204 3.671938 3.369812 0.421140 -71.312549 0.650803 0.626824 -0.087933 12.508882 -0.101013 -0.058269 -0.507918 0.404490 -0.000000 0.000000 0.000000 0.000000 0.000000 0.000000 0.000000 13.366845 -11.143748 -8.665443 94.449480 55.919767 32.669203 -175.414726 62.700550 179.680739 -24.865306 11.601961 -2.813495 0.328624 -0.944507 -0.000000 0.000000 0.000000 0.000000 0.000000 0.000000 0.000000 
0.963710 17.352481 0.736390 -170.245286 -18.930865 -174.162870 -11.169583 3.919099 -3.541909 5.128018 42.162093 -2.823792 -1.996291 0.100281 6.759700 3.408771 28.305064 8.816313 8.245400 0.000000 -51.125799 9.591293 -0.173653 8.600941 9.345659 21.286152 -22.200624 4.555824 0.598033 2.619674 2.735693 32.996075 17.625608 12.980200 0.000000 -84.121700 -2.881054 -7.330803 -8.549047 -0.769383 -7.471854 -4.438892 -7.181742 -7.537135 -2.212630 20.878576 -11.298555 -2.159257 -0.755453 -0.159153 1.614664 0.000000 0.000000 0.000000 31.607480 -9.236559 3.713234 4.271848 -1.188307 -78.489370 1.275736 1.582528 -0.091156 13.249424 -3.205422 -0.450212 -0.517824 0.519548 -0.000000 0.000000 0.000000 0.000000 0.000000 0.000000 0.000000 12.739518 -11.157813 -8.707925 94.576483 55.582303 32.423291 -175.228070 62.420281 179.676972 -24.760750 11.946764 -2.880264 0.313880 -0.955212 -0.000000 0.000000 0.000000 0.000000 0.000000 0.000000 0.000000 
0.955213 17.352725 0.731055 -170.408962 -18.538782 -173.972730 -11.208239 3.965594 -3.622184 5.033414 42.595500 -2.815554 -2.058446 0.105797 6.730768 3.355515 28.027605 9.000817 8.219000 0.000000 -51.473400 9.546295 -0.170707 8.699915 9.088130 21.631676 -22.271049 4.547070 0.613367 2.465679 2.739380 32.980682 17.641412 12.985500 0.000001 -84.006400 -2.684043 -7.355725 -8.543043 -0.659860 -7.515931 -4.367788 -7.025930 -7.571033 -1.910273 20.482004 -11.305879 -2.564660 -0.660428 -0.145658 1.505261 0.000000 0.000000 0.000000 31.987768 -7.480475 3.858775 6.117258 -3.532630 -83.725925 1.712610 3.553448 -0.089158 13.357785 -7.631862 -1.013472 -0.514801 0.682932 -0.000000 0.000000 0.000000 0.000000 0.000000 0.000000 0.000000 12.056048 -11.156837 -8.821012 94.841694 55.278993 32.305541 -175.047651 62.129052 179.673660 -24.641559 12.280639 -2.942048 0.300137 -0.965335 -0.000000 0.000000 0.000000 0.000000 0.000000 0.000000 0.000000 
0.949902 17.353564 0.723753 -170.621551 -18.254027 -173.759494 -11.243529 4.018042 -3.661170 4.878317 42.798250 -2.853994 -2.101356 0.119725 6.788719 3.304897 27.732352 9.221630 8.203800 0.000000 -51.996300 9.503082 -0.174602 8.791239 8.786163 21.953213 -22.322853 4.531010 0.632307 2.263414 2.742263 32.848415 17.659583 12.939300 0.000000 -83.775700 -2.493422 -7.373937 -8.567381 -0.548777 -7.549578 -4.306040 -6.776882 -7.589032 -1.619460 19.916877 -11.358704 -2.906491 -0.628548 -0.137205 1.412810 0.000000 0.000000 0.000000 32.405130 -5.794384 3.864495 5.356408 -5.690002 -82.953461 1.837417 0.065521 -0.104635 13.346068 -7.797672 -1.044336 -0.529861 0.765790 -0.000000 0.000000 0.000000 0.000000 0.000000 0.000000 0.000000 11.257901 -11.082661 -8.927107 95.141014 54.979708 32.275410 -174.936445 61.853404 179.670775 -24.516350 12.564539 -2.992148 0.292096 -0.977036 -0.000000 0.000000 0.000000 0.000000 0.000000 0.000000 0.000000 
0.947461 17.356211 0.714463 -170.878910 -18.132304 -173.512612 -11.268390 4.070279 -3.643973 4.614514 42.683917 -2.967970 -2.114697 0.137621 6.918816 3.267042 27.484889 9.473336 8.224800 0.000000 -52.591500 9.466601 -0.190464 8.871452 8.432331 22.223428 -22.379041 4.503384 0.652049 2.017602 2.743332 32.585890 17.684570 12.840500 0.000000 -83.436800 -2.331639 -7.360648 -8.633014 -0.468017 -7.555394 -4.279536 -6.564555 -7.583533 -1.443584 19.282328 -11.424863 -3.113551 -0.661296 -0.135321 1.357830 0.000000 0.000000 0.000000 32.742294 -4.896661 3.760223 3.690494 -6.770638 -77.142938 1.666895 -5.746480 -0.131915 13.887032 -5.786152 -0.836142 -0.580723 0.790078 -0.000000 0.000000 0.000000 0.000000 0.000000 0.000000 0.000000 10.484070 -10.976420 -8.965416 95.285198 54.616795 32.161544 -174.894942 61.559466 179.668705 -24.400762 12.760845 -3.023770 0.289994 -0.988525 -0.000000 0.000000 0.000000 0.000000 0.000000 0.000000 0.000000 
0.948171 17.360672 0.704346 -171.176465 -18.197281 -173.244447 -11.278587 4.115418 -3.571853 4.248820 42.239429 -3.153002 -2.095304 0.158354 7.127684 3.245752 27.310523 9.737267 8.283401 0.000000 -53.225800 9.439125 -0.218666 8.936959 8.031018 22.437531 -22.437272 4.462057 0.669208 1.744005 2.741337 32.177678 17.711192 12.680300 0.000000 -83.017400 -2.209430 -7.304226 -8.733677 -0.430112 -7.523749 -4.282320 -6.454888 -7.544956 -1.362692 18.649104 -11.496405 -3.199325 -0.745827 -0.138951 1.336384 0.000000 0.000000 0.000000 32.871224 -4.666936 3.614319 2.333488 -6.942739 -71.776468 1.501278 -12.059106 -0.163523 14.537980 -4.167778 -0.664805 -0.612512 0.822550 -0.000000 0.000000 0.000000 0.000000 0.000000 0.000000 0.000000 9.809864 -10.858923 -8.936579 95.225767 54.191791 31.910968 -174.917504 61.237071 179.667651 -24.302279 12.871341 -3.038528 0.293478 -0.998916 -0.000000 0.000000 0.000000 0.000000 0.000000 0.000000 0.000000 
0.952062 17.366158 0.694634 -171.507714 -18.438928 -172.966230 -11.274731 4.149218 -3.456837 3.806776 41.499792 -3.396571 -2.046865 0.182738 7.429312 3.241382 27.211595 9.983136 8.366701 0.000000 -53.849200 9.420302 -0.255059 8.981588 7.590425 22.600324 -22.498462 4.407358 0.680869 1.479721 2.735780 31.625782 17.719501 12.449000 -0.000000 -82.553500 -2.122614 -7.212721 -8.845887 -0.428599 -7.459569 -4.300628 -6.438737 -7.475610 -1.339472 18.042816 -11.578511 -3.196274 -0.861704 -0.146191 1.339181 0.000000 0.000000 0.000000 32.753497 -4.700772 3.424262 1.536895 -6.946538 -68.322135 1.419445 -18.292569 -0.191350 15.036788 -3.606654 -0.617350 -0.609247 0.878723 -0.000000 0.000000 0.000000 0.000000 0.000000 0.000000 0.000000 9.229757 -10.749103 -8.863754 95.050296 53.732482 31.597579 -174.989396 60.901751 179.667356 -24.217843 12.932910 -3.044342 0.300961 -1.008594 -0.000000 0.000000 0.000000 0.000000 0.000000 0.000000 0.000000 
0.958756 17.371902 0.686066 -171.866170 -18.837483 -172.684003 -11.259771 4.169115 -3.311670 3.313514 40.517492 -3.691581 -1.975692 0.211197 7.832763 3.252981 27.184948 10.186967 8.462300 -0.000000 -54.428300 9.407521 -0.295952 9.002848 7.118028 22.721540 -22.567918 4.340938 0.685506 1.256357 2.726661 30.941699 17.692268 12.143699 0.000000 -82.081000 -2.059986 -7.096396 -8.951346 -0.456412 -7.370352 -4.327995 -6.498287 -7.381313 -1.360433 17.469855 -11.665344 -3.120875 -0.992480 -0.155690 1.361671 0.000000 0.000000 0.000000 32.446815 -4.824578 3.179290 1.092059 -7.056440 -66.278595 1.384771 -24.485717 -0.213776 15.460173 -3.743947 -0.661064 -0.582865 0.939506 -0.000000 0.000000 0.000000 0.000000 0.000000 0.000000 0.000000 8.721746 -10.655902 -8.758455 94.839728 53.254756 31.289868 -175.095373 60.575887 179.667457 -24.144102 12.980994 -3.048629 0.310740 -1.018170 -0.000000 0.000000 0.000000 0.000000 0.000000 0.000000 0.000000 
